<?xml version="1.0" encoding="UTF-8"?> <svg xmlns="http://www.w3.org/2000/svg" id="Слой_1" data-name="Слой 1" viewBox="0 0 64.43 64.42"><title>Copper-Beech-Harrisonburg-Logo-Purple</title><path d="M127.36,279.87l-.25-.12a3.85,3.85,0,0,1,.61-1.47,3.83,3.83,0,0,1-1.69-.42,3.71,3.71,0,0,1,1.18-2.08,3.79,3.79,0,0,1-1.14-.93,3.49,3.49,0,0,1,2.51-1.57h.21a3.67,3.67,0,0,1-1.14-1.87,3.84,3.84,0,0,1,1.92-.54,3.65,3.65,0,0,1-1.42-2.07,3.49,3.49,0,0,1,2.95-.34,3.23,3.23,0,0,1,.94.56l0-.06a3.66,3.66,0,0,1-1.3-2,3.74,3.74,0,0,1,1.86-.54,3.73,3.73,0,0,1-.42-1,3.7,3.7,0,0,1,2.2-.53,3.4,3.4,0,0,1,.3-.92,4,4,0,0,1,1.11.36,3.9,3.9,0,0,1-.36-1.87,3.54,3.54,0,0,1,2.91.59,4,4,0,0,1,.41.41,3.66,3.66,0,0,1-.1-1.17,3.87,3.87,0,0,1,2.06.1,3.81,3.81,0,0,1,1.1-1.36,4,4,0,0,1,.7.65,3.68,3.68,0,0,1,2.27-1,4.47,4.47,0,0,1,.2.85,3.76,3.76,0,0,1,1.1-.23,3.56,3.56,0,0,1,.18.69,3.73,3.73,0,0,1,2-.69,3.92,3.92,0,0,1,.23,1.42,3.94,3.94,0,0,1,1.45-.38,3.59,3.59,0,0,1,.21.95,3.66,3.66,0,0,1,2.56-.09,3.09,3.09,0,0,1-.06.53,3.81,3.81,0,0,1,1.58.18,4,4,0,0,1-.23,1.21,3.9,3.9,0,0,1,1.47,1.1,3.83,3.83,0,0,1-1.29,1.18l.32.27a3.6,3.6,0,0,1,2.39-1.1,3.87,3.87,0,0,1,.23,1.45,3.86,3.86,0,0,1,1.89.07,3.89,3.89,0,0,1-.16,1.12,3.5,3.5,0,0,1,2.67,1.08,3.5,3.5,0,0,1-2.39,1.76H159l.28.93.07,0a3.44,3.44,0,0,1,3-.21,3.79,3.79,0,0,1-.4,1.46,3.85,3.85,0,0,1,.88.22,3.85,3.85,0,0,1-.54,1.71,3.7,3.7,0,0,1,1.74,1.62,3.8,3.8,0,0,1-1.11.78,3.57,3.57,0,0,1,.46.39,3.75,3.75,0,0,1-1.4,1.45,3.3,3.3,0,0,1,.68.27,3.76,3.76,0,0,1-.37,1.1,4,4,0,0,1,1.41.4,3.51,3.51,0,0,1-1.68,2.44l-.1,0a3.7,3.7,0,0,1,.59,0,3.49,3.49,0,0,1,2.54,1.53,3.52,3.52,0,0,1-2.55,1.33,4.6,4.6,0,0,1,.05.93,3.5,3.5,0,0,1-2.9-.62h0l0,.09a3.15,3.15,0,0,1,.3.24,3.44,3.44,0,0,1,1,2.77,3.48,3.48,0,0,1-2.81-.55,3.63,3.63,0,0,1-1.86,1.88,3.49,3.49,0,0,1-.84-2.79l-.19,0a3.73,3.73,0,0,1-.25,2.21,3.72,3.72,0,0,1-1.92-.82,3.44,3.44,0,0,1,.19.94,3.5,3.5,0,0,1-3-.19,2.74,2.74,0,0,1-1-1c.2-.17-2.71,2.26-2.9,2.43v4.13h10.49a24.06,24.06,0,0,1-23.59,0H143v-4l-2.47-2.53a3.62,3.62,0,0,1-1.66,2.12,3.82,3.82,0,0,1-1.06-1.75,3.56,3.56,0,0,1-2.39,1.48,4,4,0,0,1-.35-1.26,4,4,0,0,1-.66.17,3.88,3.88,0,0,1-.26-.76,3.81,3.81,0,0,1-1.46,1.53,3.87,3.87,0,0,1-1-1.57,3.73,3.73,0,0,1-.28.31,3.44,3.44,0,0,1-2.84.82,3.55,3.55,0,0,1,.67-2.67,4,4,0,0,1-1.77.16,3.94,3.94,0,0,1,0-1.16,3.39,3.39,0,0,1-.77,0,3.53,3.53,0,0,1,.76-2.77,4.12,4.12,0,0,1-.76,0,3.64,3.64,0,0,1,.52-2.48,3.61,3.61,0,0,1-2.14-1.71,3.69,3.69,0,0,1,2.28-1.1" transform="translate(-112.09 -248.37)" style="fill:#b4a269"></path><path d="M144.31,312.8a32.22,32.22,0,1,0-32.22-32.22,32.22,32.22,0,0,0,32.22,32.22m-17-32.93-.25-.12a3.85,3.85,0,0,1,.61-1.47,3.83,3.83,0,0,1-1.69-.42,3.71,3.71,0,0,1,1.18-2.08,3.79,3.79,0,0,1-1.14-.93,3.49,3.49,0,0,1,2.51-1.57h.21a3.67,3.67,0,0,1-1.14-1.87,3.84,3.84,0,0,1,1.92-.54,3.65,3.65,0,0,1-1.42-2.07,3.49,3.49,0,0,1,2.95-.34,3.23,3.23,0,0,1,.94.56l0-.06a3.66,3.66,0,0,1-1.3-2,3.74,3.74,0,0,1,1.86-.54,3.73,3.73,0,0,1-.42-1,3.7,3.7,0,0,1,2.2-.53,3.4,3.4,0,0,1,.3-.92,4,4,0,0,1,1.11.36,3.9,3.9,0,0,1-.36-1.87,3.54,3.54,0,0,1,2.91.59,4,4,0,0,1,.41.41,3.66,3.66,0,0,1-.1-1.17,3.87,3.87,0,0,1,2.06.1,3.81,3.81,0,0,1,1.1-1.36,4,4,0,0,1,.7.65,3.68,3.68,0,0,1,2.27-1,4.47,4.47,0,0,1,.2.85,3.76,3.76,0,0,1,1.1-.23,3.56,3.56,0,0,1,.18.69,3.73,3.73,0,0,1,2-.69,3.92,3.92,0,0,1,.23,1.42,3.94,3.94,0,0,1,1.45-.38,3.59,3.59,0,0,1,.21.95,3.66,3.66,0,0,1,2.56-.09,3.09,3.09,0,0,1-.06.53,3.81,3.81,0,0,1,1.58.18,4,4,0,0,1-.23,1.21,3.9,3.9,0,0,1,1.47,1.1,3.83,3.83,0,0,1-1.29,1.18l.32.27a3.6,3.6,0,0,1,2.39-1.1,3.87,3.87,0,0,1,.23,1.45,3.86,3.86,0,0,1,1.89.07,3.89,3.89,0,0,1-.16,1.12,3.5,3.5,0,0,1,2.67,1.08,3.5,3.5,0,0,1-2.39,1.76H159l.28.93.07,0a3.44,3.44,0,0,1,3-.21,3.79,3.79,0,0,1-.4,1.46,3.85,3.85,0,0,1,.88.22,3.85,3.85,0,0,1-.54,1.71,3.7,3.7,0,0,1,1.74,1.62,3.8,3.8,0,0,1-1.11.78,3.57,3.57,0,0,1,.46.39,3.75,3.75,0,0,1-1.4,1.45,3.3,3.3,0,0,1,.68.27,3.76,3.76,0,0,1-.37,1.1,4,4,0,0,1,1.41.4,3.51,3.51,0,0,1-1.68,2.44l-.1,0a3.7,3.7,0,0,1,.59,0,3.49,3.49,0,0,1,2.54,1.53,3.52,3.52,0,0,1-2.55,1.33,4.6,4.6,0,0,1,.05.93,3.5,3.5,0,0,1-2.9-.62h0l0,.09a3.15,3.15,0,0,1,.3.24,3.44,3.44,0,0,1,1,2.77,3.48,3.48,0,0,1-2.81-.55,3.63,3.63,0,0,1-1.86,1.88,3.49,3.49,0,0,1-.84-2.79l-.19,0a3.73,3.73,0,0,1-.25,2.21,3.72,3.72,0,0,1-1.92-.82,3.44,3.44,0,0,1,.19.94,3.5,3.5,0,0,1-3-.19,2.74,2.74,0,0,1-1-1c.2-.17-2.71,2.26-2.9,2.43v4.13h10.49a24.06,24.06,0,0,1-23.59,0H143v-4l-2.47-2.53a3.62,3.62,0,0,1-1.66,2.12,3.82,3.82,0,0,1-1.06-1.75,3.56,3.56,0,0,1-2.39,1.48,4,4,0,0,1-.35-1.26,4,4,0,0,1-.66.17,3.88,3.88,0,0,1-.26-.76,3.81,3.81,0,0,1-1.46,1.53,3.87,3.87,0,0,1-1-1.57,3.73,3.73,0,0,1-.28.31,3.44,3.44,0,0,1-2.84.82,3.55,3.55,0,0,1,.67-2.67,4,4,0,0,1-1.77.16,3.94,3.94,0,0,1,0-1.16,3.39,3.39,0,0,1-.77,0,3.53,3.53,0,0,1,.76-2.77,4.12,4.12,0,0,1-.76,0,3.64,3.64,0,0,1,.52-2.48,3.61,3.61,0,0,1-2.14-1.71,3.69,3.69,0,0,1,2.28-1.1" transform="translate(-112.09 -248.37)" style="fill:#310067"></path></svg> 